<svg width="21" height="19" viewBox="0 0 21 19" fill="none" xmlns="http://www.w3.org/2000/svg">
<path fill-rule="evenodd" clip-rule="evenodd" d="M2.81976 6.61293C2.58631 8.67355 2.59672 11.0501 2.92157 13.1024C3.10132 14.2379 4.07688 15.1085 5.2811 15.2079L6.53963 15.3119C9.16383 15.5286 11.8029 15.5286 14.4271 15.3119L15.6856 15.2079C16.8898 15.1085 17.8654 14.2379 18.0451 13.1024C18.37 11.0501 18.3804 8.67369 18.147 6.61305C18.1168 6.37416 18.0828 6.13559 18.0451 5.89741C17.8654 4.76185 16.8898 3.8913 15.6856 3.79186L14.4271 3.68792C11.8029 3.47121 9.16383 3.47121 6.53963 3.68792L5.2811 3.79186C4.07688 3.8913 3.10132 4.76185 2.92157 5.89741C2.88388 6.13554 2.84994 6.37408 2.81976 6.61293ZM6.64788 4.87096C9.20005 4.6602 11.7667 4.6602 14.3188 4.87096L15.5774 4.97489C16.206 5.02681 16.7152 5.48124 16.809 6.074C16.8188 6.13556 16.8283 6.19714 16.8375 6.25876L12.2033 8.70457C11.1337 9.26911 9.83301 9.26911 8.76334 8.70457L4.12923 6.25879C4.13845 6.19716 4.14793 6.13557 4.15767 6.074C4.2515 5.48124 4.76075 5.02681 5.38935 4.97489L6.64788 4.87096ZM16.9904 7.53648C17.1521 9.33178 17.0916 11.1406 16.809 12.9258C16.7152 13.5186 16.206 13.973 15.5774 14.0249L14.3188 14.1288C11.7667 14.3396 9.20005 14.3396 6.64788 14.1288L5.38935 14.0249C4.76075 13.973 4.2515 13.5186 4.15767 12.9258C3.8751 11.1406 3.81463 9.3318 3.97627 7.53651L8.15629 9.74263C9.60348 10.5064 11.3632 10.5064 12.8104 9.74263L16.9904 7.53648Z" fill="#FF5A3C"/>
</svg>
