<svg width="137" height="137" viewBox="0 0 137 137" fill="none" xmlns="http://www.w3.org/2000/svg">
<g filter="url(#filter0_d_2_471)">
<rect x="33.5083" y="17.2036" width="70" height="70" rx="12" fill="white"/>
<path d="M67.4533 68.6852H61.8994H60.1056C55.3874 68.6852 51.5475 68.4045 51.5475 63.7424V51.9854H48.8307C47.9038 51.9854 47.0713 51.4295 46.7169 50.5813C46.3635 49.7284 46.5607 48.7502 47.2122 48.0984L65.2744 30.1094C66.1375 29.2489 67.2873 28.7745 68.5076 28.7745C69.7288 28.7745 70.8785 29.2489 71.7416 30.1094C74.7309 33.0866 76.9729 35.3196 78.4676 36.8082C78.576 36.9162 78.8763 37.2152 78.9407 37.2794C78.9837 37.3222 79.0051 37.0273 79.0051 36.3948C79.1166 34.8227 80.415 33.5818 82.023 33.5818H82.041C83.7195 33.5818 85.0779 34.9347 85.0779 36.6054V42.887C85.0779 43.054 85.0551 43.1992 85.0294 43.3472L89.8038 48.0984C90.4582 48.7502 90.6525 49.7284 90.2982 50.5813C89.9448 51.4295 89.1112 51.9854 88.1853 51.9854H85.0779V53.4885C88.3299 55.6533 90.4729 59.3524 90.4729 63.552C90.4729 70.224 85.0642 75.6326 78.3923 75.6326C73.5558 75.6326 69.383 72.7904 67.4533 68.6852ZM78.3923 74.5344C84.4577 74.5344 89.3747 69.6174 89.3747 63.552C89.3747 57.4866 84.4577 52.5697 78.3923 52.5697C72.3269 52.5697 67.4099 57.4866 67.4099 63.552C67.4099 69.6174 72.3269 74.5344 78.3923 74.5344ZM82.9342 65.5674C82.9342 66.3755 82.6446 67.0741 82.0653 67.6631C81.486 68.2521 80.6462 68.6294 79.546 68.7949V69.5398C79.546 70.0237 79.1538 70.416 78.6698 70.416C78.1859 70.416 77.7935 70.0237 77.7935 69.5398V68.8534C77.0633 68.8047 76.3721 68.6805 75.7197 68.481C75.3138 68.3568 74.9513 68.2147 74.6321 68.0547C74.3247 67.9006 74.1928 67.532 74.3326 67.2178C74.3373 67.2073 74.3418 67.1973 74.346 67.1877L74.821 66.1211C74.9331 65.8692 75.2282 65.7559 75.48 65.868C75.4913 65.8731 75.5024 65.8785 75.5133 65.8843C75.5386 65.898 75.5623 65.9103 75.5843 65.9215C75.9071 66.0847 76.259 66.2247 76.6398 66.3414C77.2435 66.5264 77.8374 66.6189 78.4215 66.6189C79.5315 66.6189 80.0864 66.3414 80.0864 65.7865C80.0864 65.4944 79.9282 65.2777 79.6117 65.1366C79.2953 64.9954 78.7866 64.8469 78.0856 64.6912C77.3164 64.5256 76.6739 64.348 76.1579 64.1581C75.6418 63.9682 75.1988 63.664 74.8288 63.2453C74.4589 62.8267 74.2739 62.262 74.2739 61.5512C74.2739 60.7139 74.5757 59.9959 75.1794 59.3971C75.783 58.7984 76.6544 58.4308 77.7935 58.2945V57.5643C77.7935 57.0804 78.1859 56.688 78.6698 56.688C79.1538 56.688 79.546 57.0804 79.546 57.5643V58.2653C80.101 58.314 80.6341 58.4113 81.1452 58.5574C81.5055 58.6603 81.8379 58.785 82.1426 58.9315C82.168 58.9437 82.1968 58.9581 82.229 58.9747C82.3896 59.0574 82.4599 59.2494 82.3907 59.4163L81.7277 61.0138C81.6728 61.146 81.5213 61.2087 81.389 61.1538C81.3832 61.1514 81.3774 61.1488 81.3718 61.1459C81.3232 61.1215 81.2819 61.1011 81.2477 61.0849C80.4051 60.6851 79.5848 60.4851 78.7866 60.4851C78.2122 60.4851 77.7935 60.5703 77.5306 60.7407C77.2678 60.9111 77.1363 61.1326 77.1363 61.4052C77.1363 61.6778 77.2921 61.8823 77.6037 62.0186C77.9152 62.1549 78.4167 62.2961 79.1079 62.4421C79.8868 62.6076 80.5318 62.7853 81.043 62.9752C81.5541 63.165 81.9971 63.4668 82.372 63.8806C82.7468 64.2944 82.9342 64.8567 82.9342 65.5674Z" fill="#FF5A3C"/>
</g>
<defs>
<filter id="filter0_d_2_471" x="0.508301" y="0.203613" width="136" height="136" filterUnits="userSpaceOnUse" color-interpolation-filters="sRGB">
<feFlood flood-opacity="0" result="BackgroundImageFix"/>
<feColorMatrix in="SourceAlpha" type="matrix" values="0 0 0 0 0 0 0 0 0 0 0 0 0 0 0 0 0 0 127 0" result="hardAlpha"/>
<feMorphology radius="12" operator="erode" in="SourceAlpha" result="effect1_dropShadow_2_471"/>
<feOffset dy="16"/>
<feGaussianBlur stdDeviation="22.5"/>
<feColorMatrix type="matrix" values="0 0 0 0 0 0 0 0 0 0 0 0 0 0 0 0 0 0 0.1 0"/>
<feBlend mode="normal" in2="BackgroundImageFix" result="effect1_dropShadow_2_471"/>
<feBlend mode="normal" in="SourceGraphic" in2="effect1_dropShadow_2_471" result="shape"/>
</filter>
</defs>
</svg>
