<svg width="137" height="137" viewBox="0 0 137 137" fill="none" xmlns="http://www.w3.org/2000/svg">
<g filter="url(#filter0_d_2_501)">
<rect x="33.2866" y="17.4482" width="70" height="70" rx="12" fill="white"/>
<path d="M49.091 47.3967H54.1424C53.8313 47.3967 53.5382 47.2532 53.3463 47.0088C53.1544 46.7643 53.0877 46.445 53.1625 46.1419L53.7909 43.6304C54.1284 42.2786 55.3386 41.335 56.7308 41.335H63.2351C64.9061 41.335 66.2659 42.6948 66.2659 44.3659V46.3864C66.2659 46.9441 65.8133 47.3967 65.2556 47.3967H71.3173C70.7596 47.3967 70.307 46.9441 70.307 46.3864V44.3659C70.307 42.6948 71.6668 41.335 73.3378 41.335H79.842C81.2342 41.335 82.4445 42.2786 82.7819 43.6304L83.4104 46.1419C83.4872 46.443 83.4184 46.7643 83.2265 47.0088C83.0345 47.2532 82.7416 47.3967 82.4305 47.3967H87.4818C88.0395 47.3967 88.4922 46.9441 88.4922 46.3864V40.3247C88.4922 37.5404 86.2251 35.2733 83.4408 35.2733H53.1322C50.3479 35.2733 48.0808 37.5404 48.0808 40.3247V46.3864C48.0808 46.9441 48.5333 47.3967 49.091 47.3967Z" fill="#FF5A3C"/>
<path d="M87.4818 49.4175H49.0909C46.3066 49.4175 44.0396 51.6846 44.0396 54.4689V68.6128C44.0396 69.1705 44.4922 69.6232 45.0499 69.6232C45.6075 69.6232 46.0602 69.1705 46.0602 68.6128V65.582H90.5126V68.6128C90.5126 69.1705 90.9652 69.6232 91.5229 69.6232C92.0806 69.6232 92.5332 69.1705 92.5332 68.6128V54.4689C92.5331 51.6846 90.2661 49.4175 87.4818 49.4175ZM90.5126 63.5615H46.0601V61.5409H90.5125L90.5126 63.5615Z" fill="#FF5A3C"/>
</g>
<defs>
<filter id="filter0_d_2_501" x="0.286621" y="0.448242" width="136" height="136" filterUnits="userSpaceOnUse" color-interpolation-filters="sRGB">
<feFlood flood-opacity="0" result="BackgroundImageFix"/>
<feColorMatrix in="SourceAlpha" type="matrix" values="0 0 0 0 0 0 0 0 0 0 0 0 0 0 0 0 0 0 127 0" result="hardAlpha"/>
<feMorphology radius="12" operator="erode" in="SourceAlpha" result="effect1_dropShadow_2_501"/>
<feOffset dy="16"/>
<feGaussianBlur stdDeviation="22.5"/>
<feColorMatrix type="matrix" values="0 0 0 0 0 0 0 0 0 0 0 0 0 0 0 0 0 0 0.1 0"/>
<feBlend mode="normal" in2="BackgroundImageFix" result="effect1_dropShadow_2_501"/>
<feBlend mode="normal" in="SourceGraphic" in2="effect1_dropShadow_2_501" result="shape"/>
</filter>
</defs>
</svg>
