<svg width="137" height="137" viewBox="0 0 137 137" fill="none" xmlns="http://www.w3.org/2000/svg">
<g filter="url(#filter0_d_2_491)">
<rect x="33.9878" y="17.4482" width="70" height="70" rx="12" fill="white"/>
<path d="M56.2831 38.8555C56.8004 38.2694 56.7804 37.3753 56.22 36.8149C55.6374 36.2322 54.6925 36.2322 54.1097 36.8149L53.3774 37.5473V31.5499C53.3774 30.0963 54.56 28.9136 56.0136 28.9136C57.4672 28.9136 58.6499 30.0963 58.6499 31.5499C58.6499 32.374 59.318 33.0421 60.1421 33.0421C60.9662 33.0421 61.6343 32.374 61.6343 31.5499C61.6343 28.4506 59.1128 25.9292 56.0136 25.9292C52.9144 25.9292 50.3929 28.4506 50.3929 31.5499V37.5473L49.6606 36.8149C49.0779 36.2322 48.133 36.2322 47.5503 36.8149C46.9899 37.3753 46.97 38.2693 47.4872 38.8555H56.2831Z" fill="#FF5A3C"/>
<path d="M92.9631 41.8403H45.0122C44.1881 41.8403 43.52 42.5084 43.52 43.3325C43.52 44.1566 44.1881 44.8247 45.0122 44.8247H45.5736C46.3466 47.7508 47.1209 50.6766 47.897 53.602C48.8386 57.1511 51.2996 59.8786 54.493 61.1849L53.1136 62.8854C52.5944 63.5255 52.6925 64.4652 53.3324 64.9844C53.6089 65.2086 53.9413 65.3177 54.2715 65.3177C54.7058 65.3177 55.1364 65.129 55.4313 64.7655L57.6944 61.9756C58.0774 62.0133 58.4653 62.0349 58.8585 62.0349H79.1207C79.5177 62.0349 79.9093 62.0129 80.2959 61.9745L82.56 64.7656C82.8549 65.1291 83.2855 65.3178 83.7197 65.3178C84.05 65.3178 84.3824 65.2087 84.6588 64.9845C85.2989 64.4653 85.3969 63.5256 84.8777 62.8855L83.4953 61.1814C86.6853 59.8733 89.1431 57.1463 90.0832 53.5987C90.9215 50.4343 91.6877 47.5517 92.4152 44.8248H92.9629C93.787 44.8248 94.4551 44.1567 94.4551 43.3326C94.4551 42.5085 93.7872 41.8403 92.9631 41.8403Z" fill="#FF5A3C"/>
</g>
<defs>
<filter id="filter0_d_2_491" x="0.987793" y="0.448242" width="136" height="136" filterUnits="userSpaceOnUse" color-interpolation-filters="sRGB">
<feFlood flood-opacity="0" result="BackgroundImageFix"/>
<feColorMatrix in="SourceAlpha" type="matrix" values="0 0 0 0 0 0 0 0 0 0 0 0 0 0 0 0 0 0 127 0" result="hardAlpha"/>
<feMorphology radius="12" operator="erode" in="SourceAlpha" result="effect1_dropShadow_2_491"/>
<feOffset dy="16"/>
<feGaussianBlur stdDeviation="22.5"/>
<feColorMatrix type="matrix" values="0 0 0 0 0 0 0 0 0 0 0 0 0 0 0 0 0 0 0.1 0"/>
<feBlend mode="normal" in2="BackgroundImageFix" result="effect1_dropShadow_2_491"/>
<feBlend mode="normal" in="SourceGraphic" in2="effect1_dropShadow_2_491" result="shape"/>
</filter>
</defs>
</svg>
