<svg width="137" height="137" viewBox="0 0 137 137" fill="none" xmlns="http://www.w3.org/2000/svg">
<g filter="url(#filter0_d_2_451)">
<rect x="33.6147" y="17.2036" width="70" height="70" rx="12" fill="white"/>
<path fill-rule="evenodd" clip-rule="evenodd" d="M60.8584 46.1923C49.8585 46.1923 40.9415 55.1093 40.9415 66.1086C40.9415 67.8543 41.167 69.5466 41.5888 71.1596H79.5335C80.4572 71.3533 81.414 71.4555 82.3952 71.4555C90.0683 71.4555 96.2881 65.2357 96.2881 57.5627C96.2881 49.8896 90.0683 43.6698 82.3952 43.6698C77.8785 43.6698 73.8656 45.8259 71.3282 49.1644C68.2857 47.2805 64.6994 46.1923 60.8584 46.1923ZM76.9643 60.0824L80.0556 59.6118C80.1856 60.2057 80.4511 60.6573 80.854 60.9634C81.2535 61.2729 81.8176 61.4266 82.5374 61.4266C83.3324 61.4266 83.9297 61.2803 84.3333 60.9898C84.6021 60.784 84.7362 60.5084 84.7362 60.1644C84.7362 59.9334 84.6617 59.7391 84.5161 59.5861C84.3631 59.4405 84.0198 59.3023 83.4895 59.1791C81.007 58.6306 79.436 58.1301 78.771 57.6785C77.8494 57.048 77.3902 56.1745 77.3902 55.0585C77.3902 54.0468 77.7898 53.199 78.5848 52.5123C79.1617 52.0139 79.9689 51.6963 81.0063 51.5595V49.9763H83.7855V51.5758C84.6407 51.6943 85.3213 51.9232 85.8265 52.2624C86.5991 52.7845 87.1327 53.5538 87.4239 54.5729L84.5344 55.1106C84.4112 54.6549 84.1728 54.3041 83.8254 54.0617C83.478 53.8186 82.9817 53.6994 82.3363 53.6994C81.5223 53.6994 80.94 53.8111 80.5851 54.0393C80.3502 54.1998 80.2344 54.4084 80.2344 54.6623C80.2344 54.8824 80.3353 55.0693 80.5404 55.2224C80.8208 55.4275 81.7797 55.7153 83.4225 56.0885C85.0646 56.4616 86.2111 56.9173 86.8605 57.4584C87.5058 58.0035 87.8268 58.7687 87.8268 59.7465C87.8268 60.8104 87.3826 61.7286 86.4908 62.4938C85.8278 63.0647 84.9265 63.4236 83.7855 63.5692V65.149H81.0063V63.5272C80.1226 63.3823 79.3791 63.1006 78.7751 62.6841C77.8528 62.0455 77.2487 61.1801 76.9643 60.0824ZM82.3952 47.2189C76.6819 47.2189 72.0514 51.85 72.0514 57.5627C72.0514 63.276 76.6819 67.9071 82.3952 67.9071C88.1085 67.9071 92.739 63.276 92.739 57.5627C92.739 51.85 88.1085 47.2189 82.3952 47.2189ZM60.8584 25.0096C55.9178 25.0096 51.913 29.0144 51.913 33.9551C51.913 38.8957 55.9178 42.9005 60.8584 42.9005C65.7984 42.9005 69.8039 38.8957 69.8039 33.9551C69.8039 29.0144 65.7984 25.0096 60.8584 25.0096Z" fill="#FF5A3C"/>
</g>
<defs>
<filter id="filter0_d_2_451" x="0.614746" y="0.203613" width="136" height="136" filterUnits="userSpaceOnUse" color-interpolation-filters="sRGB">
<feFlood flood-opacity="0" result="BackgroundImageFix"/>
<feColorMatrix in="SourceAlpha" type="matrix" values="0 0 0 0 0 0 0 0 0 0 0 0 0 0 0 0 0 0 127 0" result="hardAlpha"/>
<feMorphology radius="12" operator="erode" in="SourceAlpha" result="effect1_dropShadow_2_451"/>
<feOffset dy="16"/>
<feGaussianBlur stdDeviation="22.5"/>
<feColorMatrix type="matrix" values="0 0 0 0 0 0 0 0 0 0 0 0 0 0 0 0 0 0 0.1 0"/>
<feBlend mode="normal" in2="BackgroundImageFix" result="effect1_dropShadow_2_451"/>
<feBlend mode="normal" in="SourceGraphic" in2="effect1_dropShadow_2_451" result="shape"/>
</filter>
</defs>
</svg>
