<svg width="24" height="24" viewBox="0 0 24 24" fill="none" xmlns="http://www.w3.org/2000/svg">
<path d="M17.6392 14.7955L19.4155 23.2349L11.9995 18.9246V12.949L17.6392 14.7955Z" fill="#FEE25D"/>
<path d="M19.4155 23.2349L17.6392 14.7955L11.9995 12.949L19.4155 23.2349Z" fill="#FAC030"/>
<path d="M11.9995 18.9246L4.5835 23.2349L6.35981 14.7955L11.9995 12.949V18.9246Z" fill="#FFF277"/>
<path d="M4.5835 23.2349L11.9995 18.9246V12.949L4.5835 23.2349Z" fill="#FED835"/>
<path d="M15.4865 8.1145L24.0004 9.02001L17.6407 14.7954L12.001 12.9489L15.4865 8.1145Z" fill="#FED839"/>
<path d="M17.6397 14.7956L23.9994 9.02014L12 12.949L17.6397 14.7956Z" fill="#FAA922"/>
<path d="M6.35967 14.7954L0 9.02001L8.51384 8.1145L11.9994 12.9489L6.35967 14.7954Z" fill="#FDF5A3"/>
<path d="M0 9.02014L6.35967 14.7956L11.9994 12.949L0 9.02014Z" fill="#FBDA37"/>
<path d="M11.9997 0.234863L15.4852 8.11456L11.9997 12.9489L8.51416 8.11456L11.9997 0.234863Z" fill="#FEF278"/>
<path d="M15.485 8.11456L11.9995 0.234863V12.9489L15.485 8.11456Z" fill="#FCC02C"/>
</svg>
